<svg width="106" height="96" viewBox="0 0 106 96" fill="none" xmlns="http://www.w3.org/2000/svg">
<path d="M14.16 83.672C13.968 86.84 13.128 89.648 11.64 92.096C10.104 94.544 8.232 95.768 6.024 95.768C4.296 95.768 3.024 94.928 2.208 93.248C1.632 92 1.344 90.272 1.344 88.064C1.344 84.272 2.184 78.992 3.864 72.224C3.624 72.176 3.36 72.128 3.072 72.08C2.592 72.032 2.232 71.984 1.992 71.936C1.704 71.888 1.416 71.744 1.128 71.504C0.84 71.264 0.672 70.952 0.623999 70.568C0.527999 70.04 0.671999 69.608 1.056 69.272C1.392 68.984 2.04 68.648 3 68.264C3.864 67.928 4.584 67.616 5.16 67.328C6.84 61.328 8.904 54.92 11.352 48.104C12.696 44.36 14.064 40.688 15.456 37.088C15.504 36.848 15.6 36.632 15.744 36.44C15.744 36.392 15.768 36.368 15.816 36.368C16.824 33.824 17.784 31.544 18.696 29.528C19.752 27.032 20.664 25.088 21.432 23.696C22.008 22.688 22.488 21.968 22.872 21.536C23.304 21.104 23.76 20.888 24.24 20.888C25.008 20.888 25.56 21.2 25.896 21.824C26.04 22.112 26.112 22.424 26.112 22.76C26.16 23.096 26.088 23.6 25.896 24.272C25.704 24.944 25.296 25.856 24.672 27.008C24.096 28.16 23.328 29.576 22.368 31.256C21.12 33.32 19.752 35.456 18.264 37.664C16.056 43.184 13.968 48.896 12 54.8C10.704 58.592 9.552 62.192 8.544 65.6C15.744 61.664 22.224 55.76 27.984 47.888C28.224 47.6 28.536 47.432 28.92 47.384C29.304 47.336 29.64 47.432 29.928 47.672C30.264 47.864 30.456 48.152 30.504 48.536C30.552 48.92 30.48 49.28 30.288 49.616C23.568 58.64 15.984 65.216 7.536 69.344C7.44 69.728 7.344 70.04 7.248 70.28C9.792 71.432 11.616 73.256 12.72 75.752C13.824 78.248 14.304 80.888 14.16 83.672ZM11.352 83.456C11.4 82.784 11.4 82.064 11.352 81.296C11.256 80.528 11.088 79.592 10.848 78.488C10.56 77.384 10.056 76.352 9.336 75.392C8.616 74.432 7.68 73.664 6.528 73.088C4.176 82.736 3.552 88.976 4.656 91.808C4.944 92.576 5.4 92.96 6.024 92.96C7.272 92.96 8.448 92 9.552 90.08C10.608 88.208 11.208 86 11.352 83.456ZM64.7462 46.592C65.1302 46.496 65.4662 46.568 65.7542 46.808C66.0902 47 66.2822 47.288 66.3302 47.672C66.4262 48.056 66.3782 48.392 66.1862 48.68C65.4182 49.832 64.2182 51.704 62.5862 54.296C58.5062 60.728 55.3142 65.312 53.0102 68.048C50.7542 70.784 48.6902 72.152 46.8182 72.152C44.6102 72.152 43.0502 70.952 42.1382 68.552C40.6022 64.232 41.3222 55.688 44.2982 42.92C43.6262 44.312 42.9782 45.656 42.3542 46.952C42.3542 47 42.3782 47.048 42.4262 47.096C42.6182 47.432 42.6662 47.792 42.5702 48.176C42.4742 48.56 42.2582 48.848 41.9222 49.04C41.6822 49.184 41.4182 49.232 41.1302 49.184C39.6422 52.064 38.2262 54.536 36.8822 56.6C35.5862 58.664 34.5302 60.176 33.7142 61.136C32.9462 62.096 32.1782 62.84 31.4102 63.368C30.6902 63.896 30.1862 64.184 29.8982 64.232C29.6102 64.328 29.2982 64.376 28.9622 64.376C27.8582 64.376 26.9462 64.016 26.2262 63.296C25.4582 62.576 24.9542 61.568 24.7142 60.272C24.4262 58.496 24.5942 56.336 25.2182 53.792C25.8422 51.248 26.8982 48.848 28.3862 46.592C29.8742 44.288 31.5302 42.824 33.3542 42.2C35.8502 41.24 38.2262 41.96 40.4822 44.36C41.9222 41.48 43.4342 38.288 45.0182 34.784C46.3622 31.856 47.7062 28.832 49.0502 25.712C50.6822 20.384 52.3622 15.296 54.0902 10.448C56.2022 4.496 57.5702 1.256 58.1942 0.727999C58.7222 0.295999 59.2742 0.247998 59.8502 0.583997C60.4742 0.919998 60.7142 1.568 60.5702 2.528C60.3782 3.488 59.8742 5.168 59.0582 7.568C58.2902 9.92 57.2582 12.776 55.9622 16.136C54.6662 19.496 53.2502 23 51.7142 26.648C51.0422 28.76 50.4182 30.824 49.8422 32.84C47.2502 42.008 45.5222 49.688 44.6582 55.88C43.8422 62.024 43.9862 66.128 45.0902 68.192C45.4742 68.96 46.0502 69.344 46.8182 69.344C47.2502 69.344 47.7782 69.104 48.4022 68.624C49.0742 68.192 49.8182 67.496 50.6342 66.536C51.4502 65.576 52.1942 64.64 52.8662 63.728C53.5382 62.864 54.3782 61.664 55.3862 60.128C56.4422 58.592 57.2582 57.392 57.8342 56.528C58.4102 55.664 59.2022 54.416 60.2102 52.784C61.8422 50.24 63.0662 48.368 63.8822 47.168C64.0742 46.832 64.3622 46.64 64.7462 46.592ZM28.9622 61.568C29.0582 61.568 29.1782 61.544 29.3222 61.496C29.5142 61.4 29.8982 61.088 30.4742 60.56C31.0502 60.032 31.6742 59.312 32.3462 58.4C33.0662 57.488 34.0262 56.048 35.2262 54.08C36.4262 52.112 37.7222 49.784 39.1142 47.096C37.8662 45.416 36.6182 44.576 35.3702 44.576C34.9862 44.576 34.6262 44.648 34.2902 44.792C32.3222 45.512 30.5942 47.6 29.1062 51.056C27.6182 54.512 27.0902 57.416 27.5222 59.768C27.7142 60.968 28.1942 61.568 28.9622 61.568ZM99.894 46.16C100.278 46.016 100.638 46.04 100.974 46.232C101.31 46.376 101.55 46.64 101.694 47.024C101.838 47.36 101.838 47.696 101.694 48.032C101.406 48.608 101.07 49.256 100.686 49.976C100.35 50.696 99.726 51.8 98.814 53.288C97.902 54.728 96.99 56 96.078 57.104C95.166 58.208 94.062 59.192 92.766 60.056C91.518 60.872 90.294 61.28 89.094 61.28C88.326 61.28 87.63 61.16 87.006 60.92C86.382 60.68 85.83 60.416 85.35 60.128C84.918 59.792 84.51 59.312 84.126 58.688C83.742 58.064 83.406 57.512 83.118 57.032C82.878 56.552 82.614 55.88 82.326 55.016C82.086 54.152 81.894 53.504 81.75 53.072C81.654 52.592 81.51 51.896 81.318 50.984C80.502 47.528 79.806 45.8 79.23 45.8C78.222 45.992 75.534 49.448 71.166 56.168C69.534 58.664 68.31 60.488 67.494 61.64C66.678 62.792 65.91 63.68 65.19 64.304C64.518 64.928 63.894 65.24 63.318 65.24C62.358 65.24 61.71 64.712 61.374 63.656C61.182 63.128 61.086 62.384 61.086 61.424C61.086 58.448 61.83 54.128 63.318 48.464C63.942 46.064 64.542 44.096 65.118 42.56C65.55 41.36 65.958 40.52 66.342 40.04C66.774 39.512 67.278 39.248 67.854 39.248C68.478 39.248 68.91 39.536 69.15 40.112C69.294 40.592 69.294 41.264 69.15 42.128C69.054 42.992 68.742 44 68.214 45.152C67.686 46.304 67.062 47.264 66.342 48.032C65.958 49.328 65.622 50.696 65.334 52.136C64.326 56.408 63.846 59.6 63.894 61.712C64.758 60.752 66.39 58.4 68.79 54.656C70.71 51.728 72.222 49.52 73.326 48.032C74.43 46.496 75.486 45.272 76.494 44.36C77.502 43.448 78.414 42.992 79.23 42.992C79.806 42.992 80.334 43.136 80.814 43.424C81.294 43.712 81.678 44.048 81.966 44.432C82.254 44.816 82.542 45.392 82.83 46.16C83.118 46.928 83.334 47.576 83.478 48.104C83.622 48.584 83.814 49.328 84.054 50.336C84.726 53.168 85.398 55.232 86.07 56.528C86.742 57.824 87.75 58.472 89.094 58.472C90.63 58.472 92.358 57.248 94.278 54.8C96.246 52.304 97.854 49.664 99.102 46.88C99.294 46.544 99.558 46.304 99.894 46.16ZM103.362 52.352C103.746 52.208 104.106 52.208 104.442 52.352C104.826 52.496 105.09 52.76 105.234 53.144C105.378 53.48 105.378 53.84 105.234 54.224L104.946 54.872C104.706 55.4 104.274 55.664 103.65 55.664C103.506 55.664 103.338 55.64 103.146 55.592C102.762 55.448 102.498 55.208 102.354 54.872C102.21 54.488 102.234 54.104 102.426 53.72L102.642 53.072C102.786 52.736 103.026 52.496 103.362 52.352Z" fill="white"/>
</svg>
