<svg width="136" height="90" viewBox="0 0 136 90" fill="none" xmlns="http://www.w3.org/2000/svg">
<path d="M32.312 35.68C32.568 35.744 32.744 35.888 32.84 36.112C32.968 36.336 32.984 36.576 32.888 36.832C32.824 37.088 32.68 37.264 32.456 37.36C27.784 39.728 23.4 42.832 19.304 46.672C18.152 51.248 16.776 55.776 15.176 60.256C10.6 73.024 6.392 79.408 2.552 79.408C1.336 79.408 0.567999 78.72 0.248 77.344C-0.168001 75.52 0.279999 72.816 1.592 69.232C2.904 65.68 4.808 61.968 7.304 58.096C10.248 53.552 13.672 49.424 17.576 45.712C18.632 41.52 19.192 38.624 19.256 37.024C18.84 37.312 18.168 37.936 17.24 38.896C16.728 39.376 16.328 39.744 16.04 40C15.784 40.256 15.4 40.576 14.888 40.96C14.408 41.344 13.992 41.6 13.64 41.728C13.288 41.856 12.888 41.92 12.44 41.92C11.992 41.888 11.56 41.728 11.144 41.44C9.992 40.608 9.768 39.056 10.472 36.784C11.08 34.992 12.088 33.408 13.496 32.032C14.904 30.656 16.424 29.968 18.056 29.968C19.976 29.968 20.936 31.328 20.936 34.048C20.936 34.496 20.728 34.784 20.312 34.912C20.664 35.072 20.904 35.36 21.032 35.776C21.096 36.032 21.128 36.352 21.128 36.736C21.128 38.048 20.776 40.288 20.072 43.456C23.72 40.32 27.56 37.744 31.592 35.728C31.848 35.6 32.088 35.584 32.312 35.68ZM6.2 74.704C8.088 72.208 9.944 68.624 11.768 63.952C13.592 59.28 15.208 54.4 16.616 49.312C13.736 52.352 11.16 55.632 8.888 59.152C6.392 62.96 4.552 66.512 3.368 69.808C2.184 73.136 1.752 75.504 2.072 76.912C2.168 77.328 2.328 77.536 2.552 77.536C3.576 77.536 4.792 76.592 6.2 74.704ZM15.896 37.552C16.472 36.976 16.904 36.56 17.192 36.304C17.512 36.016 17.896 35.728 18.344 35.44C18.792 35.12 19.208 34.944 19.592 34.912C19.24 34.72 19.064 34.432 19.064 34.048C19.064 33.376 18.984 32.864 18.824 32.512C18.696 32.16 18.568 31.968 18.44 31.936C18.344 31.872 18.216 31.84 18.056 31.84C16.872 31.84 15.72 32.4 14.6 33.52C13.512 34.64 12.744 35.92 12.296 37.36C11.848 38.768 11.832 39.632 12.248 39.952C12.344 39.984 12.424 40.016 12.488 40.048C12.584 40.048 12.68 40.032 12.776 40C12.904 39.968 13.016 39.936 13.112 39.904C13.24 39.872 13.368 39.808 13.496 39.712C13.624 39.616 13.736 39.536 13.832 39.472C13.96 39.376 14.104 39.264 14.264 39.136C14.424 38.976 14.552 38.848 14.648 38.752C14.776 38.656 14.92 38.528 15.08 38.368C15.272 38.176 15.416 38.048 15.512 37.984C15.608 37.888 15.736 37.744 15.896 37.552ZM40.6123 30.544C40.8683 30.544 41.0923 30.64 41.2843 30.832C41.4763 31.024 41.5723 31.248 41.5723 31.504C41.5723 31.76 41.4763 31.984 41.2843 32.176C41.0923 32.336 40.8683 32.416 40.6123 32.416C39.5563 32.416 38.3563 33.184 37.0123 34.72C35.6683 36.224 34.4843 37.92 33.4603 39.808C32.4363 41.664 31.5563 43.536 30.8202 45.424C30.6602 45.808 30.3722 46 29.9562 46C29.8602 46 29.7642 45.984 29.6682 45.952C29.4442 45.888 29.2682 45.76 29.1402 45.568C29.0122 45.344 28.9802 45.12 29.0442 44.896C29.6202 41.856 30.1162 39.44 30.5322 37.648C30.9802 35.536 31.3803 33.872 31.7323 32.656C32.0523 31.568 32.3243 30.816 32.5483 30.4C32.8043 29.952 33.1403 29.728 33.5563 29.728C33.9723 29.728 34.2763 29.904 34.4683 30.256C34.7563 30.768 34.6923 31.76 34.2763 33.232C33.8923 34.704 33.3963 35.92 32.7883 36.88C32.7243 36.944 32.6443 37.008 32.5483 37.072C32.4843 37.36 32.4203 37.664 32.3563 37.984C35.2683 33.024 38.0203 30.544 40.6123 30.544ZM65.6079 36.4C65.8639 36.336 66.0879 36.384 66.2799 36.544C66.5039 36.672 66.6319 36.864 66.6639 37.12C66.7279 37.376 66.6799 37.616 66.5199 37.84C66.2319 38.256 65.8799 38.752 65.4639 39.328C65.0479 39.872 64.3599 40.704 63.3999 41.824C62.4719 42.912 61.5599 43.872 60.6639 44.704C59.7999 45.536 58.8399 46.272 57.7839 46.912C56.7279 47.584 55.7839 47.92 54.9519 47.92C53.8639 47.92 53.0479 47.536 52.5039 46.768C52.2159 46.32 52.0239 45.792 51.9279 45.184C51.8639 44.544 51.9119 43.824 52.0719 43.024C52.2319 42.192 52.4239 41.392 52.6479 40.624C52.9039 39.824 53.2239 38.912 53.6079 37.888C52.1039 39.584 50.6799 40.96 49.3359 42.016C48.0239 43.072 46.7279 43.6 45.4479 43.6C45.2239 43.6 44.9999 43.584 44.7759 43.552C44.5519 43.488 44.3279 43.392 44.1039 43.264C43.8799 43.136 43.6399 42.96 43.3839 42.736C43.1279 42.48 42.9359 42.096 42.8079 41.584C42.6799 41.072 42.6479 40.48 42.7119 39.808C42.8399 38.752 43.1759 37.568 43.7199 36.256C44.2959 34.944 45.0159 33.68 45.8799 32.464C46.7439 31.248 47.7839 30.24 48.9999 29.44C50.2159 28.608 51.4479 28.192 52.6959 28.192C53.9439 28.192 54.8559 28.656 55.4319 29.584C55.7199 30.096 55.8639 30.688 55.8639 31.36C55.8959 32 55.7839 32.528 55.5279 32.944C55.4319 33.168 55.2559 33.328 54.9999 33.424C54.7439 33.488 54.5039 33.456 54.2799 33.328C54.0559 33.2 53.8959 33.024 53.7999 32.8C53.7359 32.544 53.7679 32.304 53.8959 32.08C54.1519 31.568 54.1199 31.056 53.7999 30.544C53.6079 30.224 53.2399 30.064 52.6959 30.064C51.5439 30.064 50.3439 30.64 49.0959 31.792C47.8479 32.912 46.8079 34.24 45.9759 35.776C45.1759 37.312 44.7119 38.72 44.5839 40C44.4879 41.024 44.6639 41.584 45.1119 41.68C45.6559 41.776 46.2799 41.648 46.9839 41.296C47.6879 40.944 48.4559 40.384 49.2879 39.616C50.1199 38.816 50.7759 38.16 51.2559 37.648C51.7359 37.136 52.3439 36.464 53.0799 35.632C53.6239 34.992 54.0079 34.56 54.2319 34.336C54.4879 34.08 54.7279 33.872 54.9519 33.712C55.1759 33.52 55.3999 33.424 55.6239 33.424C55.9119 33.424 56.1679 33.52 56.3919 33.712C56.5839 33.904 56.6799 34.144 56.6799 34.432C56.6799 34.72 56.6159 35.04 56.4879 35.392C56.3919 35.744 56.1679 36.384 55.8159 37.312C54.0239 41.984 53.4319 44.784 54.0399 45.712C54.1999 45.936 54.5039 46.048 54.9519 46.048C56.1039 46.048 57.6719 45.056 59.6559 43.072C61.6719 41.056 63.4479 38.944 64.9839 36.736C65.1439 36.544 65.3519 36.432 65.6079 36.4ZM87.1168 35.584C87.3728 35.584 87.5808 35.68 87.7408 35.872C87.9328 36.064 88.0288 36.288 88.0288 36.544C88.0288 36.8 87.9328 37.024 87.7408 37.216C87.5488 37.376 87.3248 37.456 87.0688 37.456C84.0288 37.36 81.1808 37.856 78.5248 38.944C78.1088 41.12 77.2128 43.216 75.8368 45.232C74.8128 46.704 73.6928 47.84 72.4768 48.64C71.2928 49.472 70.1088 49.888 68.9248 49.888C68.2528 49.888 67.7728 49.616 67.4848 49.072C66.9408 48.112 67.2288 46.704 68.3488 44.848C69.1808 43.44 70.3168 42.096 71.7568 40.816C73.2288 39.536 74.9088 38.464 76.7968 37.6C76.8288 37.376 76.8448 37.184 76.8448 37.024C76.8448 36.096 76.6688 35.408 76.3168 34.96C75.9648 34.512 75.4048 34.288 74.6368 34.288C74.2208 34.288 73.7888 34.4 73.3408 34.624C72.8928 34.848 72.3008 35.328 71.5648 36.064C70.8608 36.8 70.1248 37.776 69.3568 38.992C68.5888 40.176 67.7088 41.856 66.7168 44.032C65.7247 46.176 64.7167 48.688 63.6927 51.568C62.2207 55.728 60.7167 60.544 59.1807 66.016C58.0927 70.24 57.1807 73.776 56.4447 76.624C56.2207 77.648 56.0607 78.288 55.9647 78.544C55.8367 79.024 55.5327 79.264 55.0527 79.264C55.0207 79.264 54.9727 79.248 54.9087 79.216C54.6847 79.184 54.4927 79.072 54.3327 78.88C54.1727 78.688 54.1087 78.48 54.1407 78.256C54.1407 78.224 54.1567 78.16 54.1887 78.064C54.2207 77.936 54.2527 77.808 54.2847 77.68C54.3167 77.488 54.3807 77.232 54.4767 76.912C54.5087 76.784 54.5727 76.48 54.6687 76C55.6927 71.872 56.6207 68.32 57.4527 65.344C58.5727 61.024 59.5647 57.216 60.4287 53.92C62.3167 46.912 63.8367 41.392 64.9887 37.36C65.1167 36.848 65.2447 36.4 65.3727 36.016C65.3407 35.824 65.3567 35.632 65.4207 35.44C65.5168 35.216 65.6288 34.992 65.7568 34.768C66.1088 33.584 66.4128 32.608 66.6688 31.84C67.0208 30.752 67.3088 30.032 67.5328 29.68C67.7568 29.328 68.0608 29.152 68.4448 29.152C68.9888 29.152 69.3888 29.36 69.6448 29.776C69.8688 30.192 69.8688 30.688 69.6448 31.264C69.4528 31.808 69.0368 32.672 68.3968 33.856C67.9488 34.592 67.6448 35.136 67.4848 35.488C66.9728 37.184 66.3648 39.296 65.6608 41.824C68.7328 35.552 71.7248 32.416 74.6368 32.416C76.0128 32.416 77.0528 32.88 77.7568 33.808C78.3648 34.576 78.6848 35.584 78.7168 36.832C81.3408 35.904 84.1408 35.488 87.1168 35.584ZM69.1168 48.016C70.4928 47.92 71.8848 47.056 73.2928 45.424C74.7008 43.792 75.7088 41.968 76.3168 39.952C73.9168 41.264 71.9968 42.912 70.5568 44.896C69.5968 46.208 69.1168 47.248 69.1168 48.016ZM110.234 36.016C110.49 35.952 110.73 35.984 110.954 36.112C111.21 36.208 111.37 36.384 111.434 36.64C111.498 36.896 111.466 37.136 111.338 37.36C110.538 38.864 109.594 40.4 108.506 41.968C106.234 45.232 104.346 46.864 102.842 46.864C102.138 46.864 101.546 46.608 101.066 46.096C100.426 45.424 100.058 44.256 99.9624 42.592C99.8664 40.896 99.9144 39.152 100.106 37.36C100.362 33.936 100.33 32.032 100.01 31.648C99.2744 31.712 98.0744 32.896 96.4104 35.2C95.2904 36.736 93.5624 39.456 91.2264 43.36C89.0504 46.912 87.4824 49.312 86.5224 50.56C85.5944 51.84 84.7624 52.48 84.0264 52.48C83.4824 52.48 83.1144 52.192 82.9224 51.616C82.8264 51.392 82.7784 51.088 82.7784 50.704C82.7784 47.792 85.0504 38.992 89.5944 24.304C91.2904 18.768 92.8904 13.792 94.3944 9.376C95.0984 7.36 95.6584 5.76 96.0744 4.576C96.4584 3.584 96.7464 2.944 96.9384 2.656C97.1304 2.368 97.4024 2.224 97.7544 2.224C98.1704 2.224 98.4744 2.416 98.6664 2.8C99.0504 3.536 98.7144 5.616 97.6584 9.04C96.5704 12.656 95.3224 15.376 93.9144 17.2C93.8504 17.264 93.7864 17.328 93.7224 17.392C92.7304 20.528 91.7384 23.712 90.7464 26.944C87.1304 38.816 85.1144 46.464 84.6984 49.888C85.5304 48.896 87.1624 46.4 89.5944 42.4C92.2824 37.952 94.3944 34.736 95.9304 32.752C97.4664 30.768 98.8424 29.776 100.058 29.776C100.57 29.776 101.002 29.968 101.354 30.352C101.802 30.832 102.058 31.696 102.122 32.944C102.218 34.16 102.17 35.68 101.978 37.504C101.69 41.76 101.834 44.208 102.41 44.848C102.538 44.944 102.682 44.992 102.842 44.992C103.29 44.992 103.914 44.56 104.714 43.696C105.546 42.832 106.394 41.76 107.258 40.48C108.154 39.2 108.97 37.856 109.706 36.448C109.834 36.224 110.01 36.08 110.234 36.016ZM121.812 35.776C122.069 35.744 122.293 35.808 122.484 35.968C122.677 36.128 122.789 36.336 122.821 36.592C122.853 36.848 122.773 37.072 122.581 37.264C121.525 38.544 120.581 39.616 119.749 40.48C118.949 41.344 118.037 42.256 117.013 43.216C116.021 44.144 115.077 44.848 114.181 45.328C113.285 45.808 112.453 46.048 111.685 46.048C110.565 46.048 109.733 45.632 109.188 44.8C108.836 44.224 108.66 43.456 108.66 42.496C108.66 41.504 108.772 40.56 108.996 39.664C109.188 38.736 109.476 37.744 109.861 36.688C110.245 35.6 110.549 34.768 110.773 34.192C111.029 33.616 111.285 33.104 111.541 32.656C111.637 32.4 111.797 32.24 112.021 32.176C112.277 32.08 112.517 32.096 112.741 32.224C112.997 32.32 113.157 32.496 113.221 32.752C113.317 32.976 113.317 33.2 113.221 33.424C112.261 35.376 111.493 37.408 110.917 39.52C110.373 41.632 110.325 43.056 110.773 43.792C110.933 44.048 111.237 44.176 111.685 44.176C113.413 44.176 116.581 41.472 121.189 36.064C121.349 35.872 121.557 35.776 121.812 35.776ZM114.133 30.304C113.877 30.304 113.653 30.208 113.461 30.016C113.173 29.696 112.997 29.36 112.933 29.008C112.869 28.656 112.917 28.288 113.077 27.904C113.237 27.488 113.381 27.168 113.509 26.944C113.669 26.72 113.893 26.448 114.181 26.128C114.341 25.904 114.549 25.776 114.805 25.744C115.061 25.712 115.285 25.776 115.477 25.936C115.669 26.096 115.781 26.304 115.812 26.56C115.877 26.816 115.829 27.04 115.669 27.232H115.621C114.981 28.096 114.725 28.592 114.853 28.72C115.013 28.912 115.093 29.136 115.093 29.392C115.093 29.648 114.997 29.872 114.805 30.064C114.613 30.224 114.389 30.304 114.133 30.304ZM134.737 35.68C134.993 35.584 135.233 35.6 135.457 35.728C135.681 35.856 135.825 36.048 135.889 36.304C135.985 36.528 135.969 36.752 135.841 36.976C135.681 37.264 135.457 37.632 135.169 38.08C134.913 38.496 134.449 39.216 133.777 40.24C133.105 41.264 132.353 42.224 131.521 43.12C130.721 44.016 129.841 44.928 128.881 45.856C127.921 46.752 126.881 47.472 125.761 48.016C124.641 48.56 123.553 48.832 122.497 48.832C122.177 48.832 121.841 48.784 121.489 48.688C121.169 48.592 120.817 48.416 120.433 48.16C120.017 47.904 119.697 47.456 119.473 46.816C119.217 46.208 119.089 45.456 119.089 44.56C119.089 42 119.905 39.12 121.537 35.92C123.329 32.496 125.089 30.784 126.817 30.784C127.393 30.784 127.873 30.976 128.257 31.36C128.769 31.968 128.961 33.008 128.833 34.48C128.801 34.64 128.737 34.8 128.641 34.96C128.545 35.088 128.417 35.184 128.257 35.248C128.097 35.312 127.937 35.344 127.777 35.344C127.521 35.312 127.313 35.2 127.153 35.008C126.993 34.784 126.929 34.544 126.961 34.288C127.057 33.424 127.025 32.88 126.865 32.656C126.833 32.656 126.817 32.656 126.817 32.656C126.241 32.656 125.473 33.296 124.513 34.576C123.585 35.856 122.753 37.456 122.017 39.376C121.313 41.296 120.961 43.024 120.961 44.56C120.961 45.392 121.089 46.016 121.345 46.432C121.601 46.784 121.985 46.96 122.497 46.96C123.585 46.96 124.753 46.56 126.001 45.76C127.249 44.928 128.401 43.888 129.457 42.64C130.545 41.392 131.473 40.224 132.241 39.136C133.041 38.016 133.697 37.008 134.209 36.112C134.337 35.888 134.513 35.744 134.737 35.68Z" fill="white"/>
<path d="M70.2803 72.1758C69.5713 72.1758 68.9502 71.9736 68.417 71.5693C67.8896 71.165 67.4795 70.5703 67.1865 69.7852C66.8994 69 66.7559 68.083 66.7559 67.0342C66.7559 65.417 67.0811 64.1514 67.7314 63.2373C68.3818 62.3232 69.2754 61.8662 70.4121 61.8662C70.9688 61.8662 71.4551 61.9775 71.8711 62.2002C72.293 62.4229 72.6768 62.7979 73.0225 63.3252H73.0928C72.9814 62.5459 72.9258 61.7666 72.9258 60.9873V58.3242H76.3887V72H73.7959L73.0576 70.7432H72.9258C72.334 71.6982 71.4521 72.1758 70.2803 72.1758ZM71.6865 69.46C72.2373 69.46 72.624 69.2871 72.8467 68.9414C73.0752 68.5957 73.1982 68.0625 73.2158 67.3418V67.0693C73.2158 66.1904 73.0898 65.5664 72.8379 65.1973C72.5859 64.8223 72.1904 64.6348 71.6514 64.6348C71.2002 64.6348 70.8486 64.8486 70.5967 65.2764C70.3506 65.6982 70.2275 66.3018 70.2275 67.0869C70.2275 67.8604 70.3535 68.4492 70.6055 68.8535C70.8574 69.2578 71.2178 69.46 71.6865 69.46ZM83.5781 72.1758C81.9199 72.1758 80.6309 71.7363 79.7109 70.8574C78.7969 69.9727 78.3398 68.7158 78.3398 67.0869C78.3398 65.4053 78.7646 64.1162 79.6143 63.2197C80.4639 62.3174 81.6768 61.8662 83.2529 61.8662C84.7529 61.8662 85.9102 62.2588 86.7246 63.0439C87.5449 63.8232 87.9551 64.9482 87.9551 66.4189V67.9482H81.8115C81.835 68.5049 82.0371 68.9414 82.418 69.2578C82.8047 69.5742 83.3291 69.7324 83.9912 69.7324C84.5947 69.7324 85.1484 69.6768 85.6523 69.5654C86.1621 69.4482 86.7129 69.252 87.3047 68.9766V71.4463C86.7656 71.7217 86.209 71.9121 85.6348 72.0176C85.0605 72.123 84.375 72.1758 83.5781 72.1758ZM83.376 64.2041C82.9717 64.2041 82.6318 64.333 82.3564 64.5908C82.0869 64.8428 81.9287 65.2412 81.8818 65.7861H84.835C84.8232 65.3057 84.6855 64.9219 84.4219 64.6348C84.1641 64.3477 83.8154 64.2041 83.376 64.2041ZM97.5879 68.9414C97.5879 70.0078 97.2246 70.8135 96.498 71.3584C95.7715 71.9033 94.7285 72.1758 93.3691 72.1758C92.6309 72.1758 91.9893 72.1348 91.4443 72.0527C90.8994 71.9766 90.3428 71.833 89.7744 71.6221V68.8711C90.3076 69.1055 90.8906 69.2988 91.5234 69.4512C92.1621 69.6035 92.7305 69.6797 93.2285 69.6797C93.9727 69.6797 94.3447 69.5098 94.3447 69.1699C94.3447 68.9941 94.2393 68.8389 94.0283 68.7041C93.8232 68.5635 93.2197 68.2939 92.2178 67.8955C91.3037 67.5205 90.665 67.0957 90.3018 66.6211C89.9385 66.1406 89.7568 65.5342 89.7568 64.8018C89.7568 63.876 90.1143 63.1553 90.8291 62.6396C91.5439 62.124 92.5547 61.8662 93.8613 61.8662C94.5176 61.8662 95.1328 61.9395 95.707 62.0859C96.2871 62.2266 96.8877 62.4346 97.5088 62.71L96.5771 64.9248C96.1201 64.7197 95.6367 64.5469 95.127 64.4062C94.6172 64.2598 94.2012 64.1865 93.8789 64.1865C93.3164 64.1865 93.0352 64.3242 93.0352 64.5996C93.0352 64.7695 93.1318 64.916 93.3252 65.0391C93.5244 65.1562 94.0928 65.3994 95.0303 65.7686C95.7275 66.0557 96.2461 66.3369 96.5859 66.6123C96.9316 66.8877 97.1836 67.2129 97.3418 67.5879C97.5059 67.957 97.5879 68.4082 97.5879 68.9414ZM102.949 72H99.5127V62.042H102.949V72ZM99.4248 59.5635C99.4248 59.0479 99.5684 58.6641 99.8555 58.4121C100.143 58.1602 100.605 58.0342 101.244 58.0342C101.883 58.0342 102.349 58.1631 102.642 58.4209C102.935 58.6787 103.081 59.0596 103.081 59.5635C103.081 60.5713 102.469 61.0752 101.244 61.0752C100.031 61.0752 99.4248 60.5713 99.4248 59.5635ZM114.744 62.042V63.7031L113.382 64.2041C113.569 64.5439 113.663 64.9395 113.663 65.3906C113.663 66.4629 113.285 67.2949 112.529 67.8867C111.779 68.4785 110.657 68.7744 109.163 68.7744C108.794 68.7744 108.501 68.751 108.284 68.7041C108.202 68.8564 108.161 69 108.161 69.1348C108.161 69.3047 108.299 69.4365 108.574 69.5303C108.85 69.6182 109.21 69.6621 109.655 69.6621H111.308C113.54 69.6621 114.656 70.6025 114.656 72.4834C114.656 73.6963 114.138 74.6396 113.101 75.3135C112.069 75.9873 110.619 76.3242 108.75 76.3242C107.338 76.3242 106.248 76.0869 105.48 75.6123C104.719 75.1436 104.338 74.4668 104.338 73.582C104.338 72.3926 105.076 71.625 106.553 71.2793C106.248 71.1504 105.981 70.9424 105.753 70.6553C105.53 70.3682 105.419 70.084 105.419 69.8027C105.419 69.4922 105.504 69.2197 105.674 68.9854C105.844 68.7451 106.198 68.4609 106.737 68.1328C106.222 67.9043 105.814 67.5469 105.516 67.0605C105.223 66.5742 105.076 65.9824 105.076 65.2852C105.076 64.2012 105.445 63.3604 106.184 62.7627C106.922 62.165 107.977 61.8662 109.348 61.8662C109.529 61.8662 109.843 61.8867 110.288 61.9277C110.733 61.9688 111.062 62.0068 111.272 62.042H114.744ZM107.238 73.2393C107.238 73.5205 107.391 73.7461 107.695 73.916C108 74.0918 108.407 74.1797 108.917 74.1797C109.749 74.1797 110.414 74.0742 110.912 73.8633C111.416 73.6582 111.668 73.3916 111.668 73.0635C111.668 72.7998 111.516 72.6123 111.211 72.501C110.906 72.3955 110.47 72.3428 109.901 72.3428H108.557C108.188 72.3428 107.874 72.4277 107.616 72.5977C107.364 72.7734 107.238 72.9873 107.238 73.2393ZM108.319 65.3027C108.319 66.3223 108.674 66.832 109.383 66.832C109.711 66.832 109.963 66.7061 110.139 66.4541C110.32 66.2021 110.411 65.8242 110.411 65.3203C110.411 64.2891 110.068 63.7734 109.383 63.7734C108.674 63.7734 108.319 64.2832 108.319 65.3027ZM122.549 72V66.5684C122.549 65.9062 122.452 65.4082 122.259 65.0742C122.071 64.7344 121.767 64.5645 121.345 64.5645C120.765 64.5645 120.346 64.7959 120.088 65.2588C119.83 65.7217 119.701 66.5156 119.701 67.6406V72H116.265V62.042H118.857L119.288 63.2725H119.49C119.783 62.8037 120.188 62.4521 120.703 62.2178C121.225 61.9834 121.822 61.8662 122.496 61.8662C123.598 61.8662 124.453 62.1855 125.062 62.8242C125.678 63.4629 125.985 64.3623 125.985 65.5225V72H122.549ZM127.893 70.541C127.893 70.002 128.051 69.5859 128.367 69.293C128.689 69 129.155 68.8535 129.765 68.8535C130.345 68.8535 130.79 69 131.101 69.293C131.411 69.5859 131.566 70.002 131.566 70.541C131.566 71.0684 131.405 71.4814 131.083 71.7803C130.767 72.0732 130.327 72.2197 129.765 72.2197C129.185 72.2197 128.728 72.0732 128.394 71.7803C128.06 71.4873 127.893 71.0742 127.893 70.541Z" fill="white"/>
</svg>
